<?xml version="1.0" encoding="UTF-8"?>
<svg xmlns="http://www.w3.org/2000/svg" fill="none" stroke="none">
	<defs></defs>
	<g stroke="#868AFF" stroke-width="20" stroke-linecap="cap" stroke-linejoin="round">
		<path d="M 0,5 M 0,10 L 54,10"></path>
	</g>
	<g stroke="#FFFFFF" stroke-width="20" stroke-linecap="cap" stroke-linejoin="round">
		<path d="M 54,10 L 58,10"></path>
	</g>
	<g stroke="#868AFF" stroke-width="20" stroke-linecap="cap" stroke-linejoin="round">
		<path d="M 58,10 L 86,10"></path>
	</g>
	<g stroke="#000000" stroke-width="20" stroke-linecap="cap" stroke-linejoin="round">
		<path d="M 86,10 L 114,10"></path>
	</g>
	<g stroke="#86AE9A" stroke-width="20" stroke-linecap="cap" stroke-linejoin="round">
		<path d="M 114,10 L 122,10"></path>
	</g>
	<g stroke="#000000" stroke-width="20" stroke-linecap="cap" stroke-linejoin="round">
		<path d="M 122,10 L 130,10"></path>
	</g>
	<g stroke="#86AE9A" stroke-width="20" stroke-linecap="cap" stroke-linejoin="round">
		<path d="M 130,10 L 138,10"></path>
	</g>
	<g stroke="#000000" stroke-width="20" stroke-linecap="cap" stroke-linejoin="round">
		<path d="M 138,10 L 146,10"></path>
	</g>
	<g stroke="#86AE9A" stroke-width="20" stroke-linecap="cap" stroke-linejoin="round">
		<path d="M 146,10 L 200,10"></path>
	</g>
	<g stroke="#868AFF" stroke-width="20" stroke-linecap="cap" stroke-linejoin="round">
		<path d="M 200,10 L 254,10"></path>
	</g>
	<g stroke="#FFFFFF" stroke-width="20" stroke-linecap="cap" stroke-linejoin="round">
		<path d="M 254,10 L 258,10"></path>
	</g>
	<g stroke="#868AFF" stroke-width="20" stroke-linecap="cap" stroke-linejoin="round">
		<path d="M 258,10 L 286,10"></path>
	</g>
	<g stroke="#000000" stroke-width="20" stroke-linecap="cap" stroke-linejoin="round">
		<path d="M 286,10 L 314,10"></path>
	</g>
	<g stroke="#86AE9A" stroke-width="20" stroke-linecap="cap" stroke-linejoin="round">
		<path d="M 314,10 L 322,10"></path>
	</g>
	<g stroke="#000000" stroke-width="20" stroke-linecap="cap" stroke-linejoin="round">
		<path d="M 322,10 L 330,10"></path>
	</g>
	<g stroke="#86AE9A" stroke-width="20" stroke-linecap="cap" stroke-linejoin="round">
		<path d="M 330,10 L 338,10"></path>
	</g>
	<g stroke="#000000" stroke-width="20" stroke-linecap="cap" stroke-linejoin="round">
		<path d="M 338,10 L 346,10"></path>
	</g>
	<g stroke="#86AE9A" stroke-width="20" stroke-linecap="cap" stroke-linejoin="round">
		<path d="M 346,10 L 400,10"></path>
	</g>
	<g stroke="#868AFF" stroke-width="20" stroke-linecap="cap" stroke-linejoin="round">
		<path d="M 400,10 L 454,10"></path>
	</g>
	<g stroke="#FFFFFF" stroke-width="20" stroke-linecap="cap" stroke-linejoin="round">
		<path d="M 454,10 L 458,10"></path>
	</g>
	<g stroke="#868AFF" stroke-width="20" stroke-linecap="cap" stroke-linejoin="round">
		<path d="M 458,10 L 486,10"></path>
	</g>
	<g stroke="#000000" stroke-width="20" stroke-linecap="cap" stroke-linejoin="round">
		<path d="M 486,10 L 514,10"></path>
	</g>
	<g stroke="#86AE9A" stroke-width="20" stroke-linecap="cap" stroke-linejoin="round">
		<path d="M 514,10 L 522,10"></path>
	</g>
	<g stroke="#000000" stroke-width="20" stroke-linecap="cap" stroke-linejoin="round">
		<path d="M 522,10 L 530,10"></path>
	</g>
	<g stroke="#86AE9A" stroke-width="20" stroke-linecap="cap" stroke-linejoin="round">
		<path d="M 530,10 L 538,10"></path>
	</g>
	<g stroke="#000000" stroke-width="20" stroke-linecap="cap" stroke-linejoin="round">
		<path d="M 538,10 L 546,10"></path>
	</g>
	<g stroke="#86AE9A" stroke-width="20" stroke-linecap="cap" stroke-linejoin="round">
		<path d="M 546,10 L 600,10"></path>
	</g>
	<g stroke="#868AFF" stroke-width="20" stroke-linecap="cap" stroke-linejoin="round">
		<path d="M 600,10 L 654,10"></path>
	</g>
	<g stroke="#FFFFFF" stroke-width="20" stroke-linecap="cap" stroke-linejoin="round">
		<path d="M 654,10 L 658,10"></path>
	</g>
	<g stroke="#868AFF" stroke-width="20" stroke-linecap="cap" stroke-linejoin="round">
		<path d="M 658,10 L 686,10"></path>
	</g>
	<g stroke="#000000" stroke-width="20" stroke-linecap="cap" stroke-linejoin="round">
		<path d="M 686,10 L 714,10"></path>
	</g>
	<g stroke="#86AE9A" stroke-width="20" stroke-linecap="cap" stroke-linejoin="round">
		<path d="M 714,10 L 722,10"></path>
	</g>
	<g stroke="#000000" stroke-width="20" stroke-linecap="cap" stroke-linejoin="round">
		<path d="M 722,10 L 730,10"></path>
	</g>
	<g stroke="#86AE9A" stroke-width="20" stroke-linecap="cap" stroke-linejoin="round">
		<path d="M 730,10 L 738,10"></path>
	</g>
	<g stroke="#000000" stroke-width="20" stroke-linecap="cap" stroke-linejoin="round">
		<path d="M 738,10 L 746,10"></path>
	</g>
	<g stroke="#86AE9A" stroke-width="20" stroke-linecap="cap" stroke-linejoin="round">
		<path d="M 746,10 L 800,10"></path>
	</g>
	<g stroke="#868AFF" stroke-width="20" stroke-linecap="cap" stroke-linejoin="round">
		<path d="M 800,10 L 854,10"></path>
	</g>
	<g stroke="#FFFFFF" stroke-width="20" stroke-linecap="cap" stroke-linejoin="round">
		<path d="M 854,10 L 858,10"></path>
	</g>
	<g stroke="#868AFF" stroke-width="20" stroke-linecap="cap" stroke-linejoin="round">
		<path d="M 858,10 L 886,10"></path>
	</g>
	<g stroke="#000000" stroke-width="20" stroke-linecap="cap" stroke-linejoin="round">
		<path d="M 886,10 L 914,10"></path>
	</g>
	<g stroke="#86AE9A" stroke-width="20" stroke-linecap="cap" stroke-linejoin="round">
		<path d="M 914,10 L 922,10"></path>
	</g>
	<g stroke="#000000" stroke-width="20" stroke-linecap="cap" stroke-linejoin="round">
		<path d="M 922,10 L 930,10"></path>
	</g>
	<g stroke="#86AE9A" stroke-width="20" stroke-linecap="cap" stroke-linejoin="round">
		<path d="M 930,10 L 938,10"></path>
	</g>
	<g stroke="#000000" stroke-width="20" stroke-linecap="cap" stroke-linejoin="round">
		<path d="M 938,10 L 946,10"></path>
	</g>
	<g stroke="#86AE9A" stroke-width="20" stroke-linecap="cap" stroke-linejoin="round">
		<path d="M 946,10 L 1000,10"></path>
	</g>
</svg>