<?xml version="1.0" encoding="UTF-8"?>
<svg xmlns="http://www.w3.org/2000/svg" fill="none" stroke="none">
	<defs></defs>
	<g stroke="#5480B0" stroke-width="20" stroke-linecap="cap" stroke-linejoin="round">
		<path d="M 0,5 M 0,10 L 48,10"></path>
	</g>
	<g stroke="#000000" stroke-width="20" stroke-linecap="cap" stroke-linejoin="round">
		<path d="M 48,10 L 64,10"></path>
	</g>
	<g stroke="#C00000" stroke-width="20" stroke-linecap="cap" stroke-linejoin="round">
		<path d="M 64,10 L 80,10"></path>
	</g>
	<g stroke="#000000" stroke-width="20" stroke-linecap="cap" stroke-linejoin="round">
		<path d="M 80,10 L 96,10"></path>
	</g>
	<g stroke="#F0C000" stroke-width="20" stroke-linecap="cap" stroke-linejoin="round">
		<path d="M 96,10 L 104,10"></path>
	</g>
	<g stroke="#000000" stroke-width="20" stroke-linecap="cap" stroke-linejoin="round">
		<path d="M 104,10 L 124,10"></path>
	</g>
	<g stroke="#304080" stroke-width="20" stroke-linecap="cap" stroke-linejoin="round">
		<path d="M 124,10 L 140,10"></path>
	</g>
	<g stroke="#000000" stroke-width="20" stroke-linecap="cap" stroke-linejoin="round">
		<path d="M 140,10 L 172,10"></path>
	</g>
	<g stroke="#304080" stroke-width="20" stroke-linecap="cap" stroke-linejoin="round">
		<path d="M 172,10 L 212,10"></path>
	</g>
	<g stroke="#000000" stroke-width="20" stroke-linecap="cap" stroke-linejoin="round">
		<path d="M 212,10 L 228,10"></path>
	</g>
	<g stroke="#008000" stroke-width="20" stroke-linecap="cap" stroke-linejoin="round">
		<path d="M 228,10 L 356,10"></path>
	</g>
	<g stroke="#C00000" stroke-width="20" stroke-linecap="cap" stroke-linejoin="round">
		<path d="M 356,10 L 372,10"></path>
	</g>
	<g stroke="#008000" stroke-width="20" stroke-linecap="cap" stroke-linejoin="round">
		<path d="M 372,10 L 500,10"></path>
	</g>
	<g stroke="#5480B0" stroke-width="20" stroke-linecap="cap" stroke-linejoin="round">
		<path d="M 500,10 L 532,10"></path>
	</g>
	<g stroke="#000000" stroke-width="20" stroke-linecap="cap" stroke-linejoin="round">
		<path d="M 532,10 L 564,10"></path>
	</g>
	<g stroke="#F0C000" stroke-width="20" stroke-linecap="cap" stroke-linejoin="round">
		<path d="M 564,10 L 572,10"></path>
	</g>
	<g stroke="#000000" stroke-width="20" stroke-linecap="cap" stroke-linejoin="round">
		<path d="M 572,10 L 580,10"></path>
	</g>
	<g stroke="#E0E0E0" stroke-width="20" stroke-linecap="cap" stroke-linejoin="round">
		<path d="M 580,10 L 588,10"></path>
	</g>
	<g stroke="#000000" stroke-width="20" stroke-linecap="cap" stroke-linejoin="round">
		<path d="M 588,10 L 596,10"></path>
	</g>
	<g stroke="#008000" stroke-width="20" stroke-linecap="cap" stroke-linejoin="round">
		<path d="M 596,10 L 644,10"></path>
	</g>
	<g stroke="#C00000" stroke-width="20" stroke-linecap="cap" stroke-linejoin="round">
		<path d="M 644,10 L 676,10"></path>
	</g>
	<g stroke="#000000" stroke-width="20" stroke-linecap="cap" stroke-linejoin="round">
		<path d="M 676,10 L 684,10"></path>
	</g>
	<g stroke="#C00000" stroke-width="20" stroke-linecap="cap" stroke-linejoin="round">
		<path d="M 684,10 L 704,10"></path>
	</g>
	<g stroke="#E0E0E0" stroke-width="20" stroke-linecap="cap" stroke-linejoin="round">
		<path d="M 704,10 L 712,10"></path>
	</g>
	<g stroke="#C00000" stroke-width="20" stroke-linecap="cap" stroke-linejoin="round">
		<path d="M 712,10 L 732,10"></path>
	</g>
	<g stroke="#000000" stroke-width="20" stroke-linecap="cap" stroke-linejoin="round">
		<path d="M 732,10 L 740,10"></path>
	</g>
	<g stroke="#C00000" stroke-width="20" stroke-linecap="cap" stroke-linejoin="round">
		<path d="M 740,10 L 772,10"></path>
	</g>
	<g stroke="#008000" stroke-width="20" stroke-linecap="cap" stroke-linejoin="round">
		<path d="M 772,10 L 820,10"></path>
	</g>
	<g stroke="#000000" stroke-width="20" stroke-linecap="cap" stroke-linejoin="round">
		<path d="M 820,10 L 828,10"></path>
	</g>
	<g stroke="#E0E0E0" stroke-width="20" stroke-linecap="cap" stroke-linejoin="round">
		<path d="M 828,10 L 836,10"></path>
	</g>
	<g stroke="#000000" stroke-width="20" stroke-linecap="cap" stroke-linejoin="round">
		<path d="M 836,10 L 844,10"></path>
	</g>
	<g stroke="#F0C000" stroke-width="20" stroke-linecap="cap" stroke-linejoin="round">
		<path d="M 844,10 L 852,10"></path>
	</g>
	<g stroke="#000000" stroke-width="20" stroke-linecap="cap" stroke-linejoin="round">
		<path d="M 852,10 L 884,10"></path>
	</g>
	<g stroke="#5480B0" stroke-width="20" stroke-linecap="cap" stroke-linejoin="round">
		<path d="M 884,10 L 916,10"></path>
	</g>
	<g stroke="#C00000" stroke-width="20" stroke-linecap="cap" stroke-linejoin="round">
		<path d="M 916,10 L 964,10"></path>
	</g>
</svg>