<?xml version="1.0" encoding="UTF-8"?>
<svg xmlns="http://www.w3.org/2000/svg" fill="none" stroke="none">
	<defs></defs>
	<g stroke="#BE3A34" stroke-width="20" stroke-linecap="cap" stroke-linejoin="round">
		<path d="M 0,5 M 0,10 L 28,10"></path>
	</g>
	<g stroke="#003A70" stroke-width="20" stroke-linecap="cap" stroke-linejoin="round">
		<path d="M 28,10 L 32,10"></path>
	</g>
	<g stroke="#BE3A34" stroke-width="20" stroke-linecap="cap" stroke-linejoin="round">
		<path d="M 32,10 L 40,10"></path>
	</g>
	<g stroke="#003A70" stroke-width="20" stroke-linecap="cap" stroke-linejoin="round">
		<path d="M 40,10 L 48,10"></path>
	</g>
	<g stroke="#BE3A34" stroke-width="20" stroke-linecap="cap" stroke-linejoin="round">
		<path d="M 48,10 L 188,10"></path>
	</g>
	<g stroke="#A4C8E1" stroke-width="20" stroke-linecap="cap" stroke-linejoin="round">
		<path d="M 188,10 L 196,10"></path>
	</g>
	<g stroke="#BE3A34" stroke-width="20" stroke-linecap="cap" stroke-linejoin="round">
		<path d="M 196,10 L 204,10"></path>
	</g>
	<g stroke="#003A70" stroke-width="20" stroke-linecap="cap" stroke-linejoin="round">
		<path d="M 204,10 L 244,10"></path>
	</g>
	<g stroke="#BE3A34" stroke-width="20" stroke-linecap="cap" stroke-linejoin="round">
		<path d="M 244,10 L 252,10"></path>
	</g>
	<g stroke="#4A7729" stroke-width="20" stroke-linecap="cap" stroke-linejoin="round">
		<path d="M 252,10 L 260,10"></path>
	</g>
	<g stroke="#BE3A34" stroke-width="20" stroke-linecap="cap" stroke-linejoin="round">
		<path d="M 260,10 L 268,10"></path>
	</g>
	<g stroke="#4A7729" stroke-width="20" stroke-linecap="cap" stroke-linejoin="round">
		<path d="M 268,10 L 416,10"></path>
	</g>
	<g stroke="#BE3A34" stroke-width="20" stroke-linecap="cap" stroke-linejoin="round">
		<path d="M 416,10 L 428,10"></path>
	</g>
	<g stroke="#003A70" stroke-width="20" stroke-linecap="cap" stroke-linejoin="round">
		<path d="M 428,10 L 436,10"></path>
	</g>
	<g stroke="#BE3A34" stroke-width="20" stroke-linecap="cap" stroke-linejoin="round">
		<path d="M 436,10 L 460,10"></path>
	</g>
	<g stroke="#BE3A34" stroke-width="20" stroke-linecap="cap" stroke-linejoin="round">
		<path d="M 460,10 L 488,10"></path>
	</g>
	<g stroke="#003A70" stroke-width="20" stroke-linecap="cap" stroke-linejoin="round">
		<path d="M 488,10 L 492,10"></path>
	</g>
	<g stroke="#BE3A34" stroke-width="20" stroke-linecap="cap" stroke-linejoin="round">
		<path d="M 492,10 L 500,10"></path>
	</g>
	<g stroke="#003A70" stroke-width="20" stroke-linecap="cap" stroke-linejoin="round">
		<path d="M 500,10 L 508,10"></path>
	</g>
	<g stroke="#BE3A34" stroke-width="20" stroke-linecap="cap" stroke-linejoin="round">
		<path d="M 508,10 L 648,10"></path>
	</g>
	<g stroke="#A4C8E1" stroke-width="20" stroke-linecap="cap" stroke-linejoin="round">
		<path d="M 648,10 L 656,10"></path>
	</g>
	<g stroke="#BE3A34" stroke-width="20" stroke-linecap="cap" stroke-linejoin="round">
		<path d="M 656,10 L 664,10"></path>
	</g>
	<g stroke="#003A70" stroke-width="20" stroke-linecap="cap" stroke-linejoin="round">
		<path d="M 664,10 L 704,10"></path>
	</g>
	<g stroke="#BE3A34" stroke-width="20" stroke-linecap="cap" stroke-linejoin="round">
		<path d="M 704,10 L 712,10"></path>
	</g>
	<g stroke="#4A7729" stroke-width="20" stroke-linecap="cap" stroke-linejoin="round">
		<path d="M 712,10 L 720,10"></path>
	</g>
	<g stroke="#BE3A34" stroke-width="20" stroke-linecap="cap" stroke-linejoin="round">
		<path d="M 720,10 L 728,10"></path>
	</g>
	<g stroke="#4A7729" stroke-width="20" stroke-linecap="cap" stroke-linejoin="round">
		<path d="M 728,10 L 876,10"></path>
	</g>
	<g stroke="#BE3A34" stroke-width="20" stroke-linecap="cap" stroke-linejoin="round">
		<path d="M 876,10 L 888,10"></path>
	</g>
	<g stroke="#003A70" stroke-width="20" stroke-linecap="cap" stroke-linejoin="round">
		<path d="M 888,10 L 896,10"></path>
	</g>
	<g stroke="#BE3A34" stroke-width="20" stroke-linecap="cap" stroke-linejoin="round">
		<path d="M 896,10 L 920,10"></path>
	</g>
	<g stroke="#BE3A34" stroke-width="20" stroke-linecap="cap" stroke-linejoin="round">
		<path d="M 920,10 L 948,10"></path>
	</g>
	<g stroke="#003A70" stroke-width="20" stroke-linecap="cap" stroke-linejoin="round">
		<path d="M 948,10 L 952,10"></path>
	</g>
	<g stroke="#BE3A34" stroke-width="20" stroke-linecap="cap" stroke-linejoin="round">
		<path d="M 952,10 L 960,10"></path>
	</g>
	<g stroke="#003A70" stroke-width="20" stroke-linecap="cap" stroke-linejoin="round">
		<path d="M 960,10 L 968,10"></path>
	</g>
</svg>