<?xml version="1.0" encoding="UTF-8"?>
<svg xmlns="http://www.w3.org/2000/svg" fill="none" stroke="none">
	<defs></defs>
	<g stroke="#AA0000" stroke-width="20" stroke-linecap="cap" stroke-linejoin="round">
		<path d="M 0,5 M 0,10 L 16,10"></path>
	</g>
	<g stroke="#000052" stroke-width="20" stroke-linecap="cap" stroke-linejoin="round">
		<path d="M 16,10 L 100,10"></path>
	</g>
	<g stroke="#11450D" stroke-width="20" stroke-linecap="cap" stroke-linejoin="round">
		<path d="M 100,10 L 184,10"></path>
	</g>
	<g stroke="#AAAAAA" stroke-width="20" stroke-linecap="cap" stroke-linejoin="round">
		<path d="M 184,10 L 196,10"></path>
	</g>
	<g stroke="#11450D" stroke-width="20" stroke-linecap="cap" stroke-linejoin="round">
		<path d="M 196,10 L 280,10"></path>
	</g>
	<g stroke="#000000" stroke-width="20" stroke-linecap="cap" stroke-linejoin="round">
		<path d="M 280,10 L 296,10"></path>
	</g>
	<g stroke="#AA0000" stroke-width="20" stroke-linecap="cap" stroke-linejoin="round">
		<path d="M 296,10 L 312,10"></path>
	</g>
	<g stroke="#000052" stroke-width="20" stroke-linecap="cap" stroke-linejoin="round">
		<path d="M 312,10 L 396,10"></path>
	</g>
	<g stroke="#11450D" stroke-width="20" stroke-linecap="cap" stroke-linejoin="round">
		<path d="M 396,10 L 480,10"></path>
	</g>
	<g stroke="#AAAAAA" stroke-width="20" stroke-linecap="cap" stroke-linejoin="round">
		<path d="M 480,10 L 492,10"></path>
	</g>
	<g stroke="#11450D" stroke-width="20" stroke-linecap="cap" stroke-linejoin="round">
		<path d="M 492,10 L 576,10"></path>
	</g>
	<g stroke="#000000" stroke-width="20" stroke-linecap="cap" stroke-linejoin="round">
		<path d="M 576,10 L 592,10"></path>
	</g>
	<g stroke="#AA0000" stroke-width="20" stroke-linecap="cap" stroke-linejoin="round">
		<path d="M 592,10 L 608,10"></path>
	</g>
	<g stroke="#000052" stroke-width="20" stroke-linecap="cap" stroke-linejoin="round">
		<path d="M 608,10 L 692,10"></path>
	</g>
	<g stroke="#11450D" stroke-width="20" stroke-linecap="cap" stroke-linejoin="round">
		<path d="M 692,10 L 776,10"></path>
	</g>
	<g stroke="#AAAAAA" stroke-width="20" stroke-linecap="cap" stroke-linejoin="round">
		<path d="M 776,10 L 788,10"></path>
	</g>
	<g stroke="#11450D" stroke-width="20" stroke-linecap="cap" stroke-linejoin="round">
		<path d="M 788,10 L 872,10"></path>
	</g>
	<g stroke="#000000" stroke-width="20" stroke-linecap="cap" stroke-linejoin="round">
		<path d="M 872,10 L 888,10"></path>
	</g>
	<g stroke="#AA0000" stroke-width="20" stroke-linecap="cap" stroke-linejoin="round">
		<path d="M 888,10 L 904,10"></path>
	</g>
	<g stroke="#000052" stroke-width="20" stroke-linecap="cap" stroke-linejoin="round">
		<path d="M 904,10 L 988,10"></path>
	</g>
</svg>