<?xml version="1.0" encoding="UTF-8"?>
<svg xmlns="http://www.w3.org/2000/svg" fill="none" stroke="none">
	<defs></defs>
	<g stroke="#304080" stroke-width="20" stroke-linecap="cap" stroke-linejoin="round">
		<path d="M 0,5 M 0,10 L 8,10"></path>
	</g>
	<g stroke="#C00000" stroke-width="20" stroke-linecap="cap" stroke-linejoin="round">
		<path d="M 8,10 L 32,10"></path>
	</g>
	<g stroke="#304080" stroke-width="20" stroke-linecap="cap" stroke-linejoin="round">
		<path d="M 32,10 L 40,10"></path>
	</g>
	<g stroke="#C00000" stroke-width="20" stroke-linecap="cap" stroke-linejoin="round">
		<path d="M 40,10 L 52,10"></path>
	</g>
	<g stroke="#008000" stroke-width="20" stroke-linecap="cap" stroke-linejoin="round">
		<path d="M 52,10 L 148,10"></path>
	</g>
	<g stroke="#C00000" stroke-width="20" stroke-linecap="cap" stroke-linejoin="round">
		<path d="M 148,10 L 156,10"></path>
	</g>
	<g stroke="#008000" stroke-width="20" stroke-linecap="cap" stroke-linejoin="round">
		<path d="M 156,10 L 164,10"></path>
	</g>
	<g stroke="#C00000" stroke-width="20" stroke-linecap="cap" stroke-linejoin="round">
		<path d="M 164,10 L 172,10"></path>
	</g>
	<g stroke="#304080" stroke-width="20" stroke-linecap="cap" stroke-linejoin="round">
		<path d="M 172,10 L 208,10"></path>
	</g>
	<g stroke="#C00000" stroke-width="20" stroke-linecap="cap" stroke-linejoin="round">
		<path d="M 208,10 L 216,10"></path>
	</g>
	<g stroke="#5480B0" stroke-width="20" stroke-linecap="cap" stroke-linejoin="round">
		<path d="M 216,10 L 224,10"></path>
	</g>
	<g stroke="#C00000" stroke-width="20" stroke-linecap="cap" stroke-linejoin="round">
		<path d="M 224,10 L 336,10"></path>
	</g>
	<g stroke="#304080" stroke-width="20" stroke-linecap="cap" stroke-linejoin="round">
		<path d="M 336,10 L 344,10"></path>
	</g>
	<g stroke="#C00000" stroke-width="20" stroke-linecap="cap" stroke-linejoin="round">
		<path d="M 344,10 L 352,10"></path>
	</g>
	<g stroke="#304080" stroke-width="20" stroke-linecap="cap" stroke-linejoin="round">
		<path d="M 352,10 L 356,10"></path>
	</g>
	<g stroke="#C00000" stroke-width="20" stroke-linecap="cap" stroke-linejoin="round">
		<path d="M 356,10 L 380,10"></path>
	</g>
	<g stroke="#304080" stroke-width="20" stroke-linecap="cap" stroke-linejoin="round">
		<path d="M 380,10 L 388,10"></path>
	</g>
	<g stroke="#C00000" stroke-width="20" stroke-linecap="cap" stroke-linejoin="round">
		<path d="M 388,10 L 412,10"></path>
	</g>
	<g stroke="#304080" stroke-width="20" stroke-linecap="cap" stroke-linejoin="round">
		<path d="M 412,10 L 420,10"></path>
	</g>
	<g stroke="#C00000" stroke-width="20" stroke-linecap="cap" stroke-linejoin="round">
		<path d="M 420,10 L 432,10"></path>
	</g>
	<g stroke="#008000" stroke-width="20" stroke-linecap="cap" stroke-linejoin="round">
		<path d="M 432,10 L 528,10"></path>
	</g>
	<g stroke="#C00000" stroke-width="20" stroke-linecap="cap" stroke-linejoin="round">
		<path d="M 528,10 L 536,10"></path>
	</g>
	<g stroke="#008000" stroke-width="20" stroke-linecap="cap" stroke-linejoin="round">
		<path d="M 536,10 L 544,10"></path>
	</g>
	<g stroke="#C00000" stroke-width="20" stroke-linecap="cap" stroke-linejoin="round">
		<path d="M 544,10 L 552,10"></path>
	</g>
	<g stroke="#304080" stroke-width="20" stroke-linecap="cap" stroke-linejoin="round">
		<path d="M 552,10 L 588,10"></path>
	</g>
	<g stroke="#C00000" stroke-width="20" stroke-linecap="cap" stroke-linejoin="round">
		<path d="M 588,10 L 596,10"></path>
	</g>
	<g stroke="#5480B0" stroke-width="20" stroke-linecap="cap" stroke-linejoin="round">
		<path d="M 596,10 L 604,10"></path>
	</g>
	<g stroke="#C00000" stroke-width="20" stroke-linecap="cap" stroke-linejoin="round">
		<path d="M 604,10 L 716,10"></path>
	</g>
	<g stroke="#304080" stroke-width="20" stroke-linecap="cap" stroke-linejoin="round">
		<path d="M 716,10 L 724,10"></path>
	</g>
	<g stroke="#C00000" stroke-width="20" stroke-linecap="cap" stroke-linejoin="round">
		<path d="M 724,10 L 732,10"></path>
	</g>
	<g stroke="#304080" stroke-width="20" stroke-linecap="cap" stroke-linejoin="round">
		<path d="M 732,10 L 736,10"></path>
	</g>
	<g stroke="#C00000" stroke-width="20" stroke-linecap="cap" stroke-linejoin="round">
		<path d="M 736,10 L 760,10"></path>
	</g>
	<g stroke="#304080" stroke-width="20" stroke-linecap="cap" stroke-linejoin="round">
		<path d="M 760,10 L 768,10"></path>
	</g>
	<g stroke="#C00000" stroke-width="20" stroke-linecap="cap" stroke-linejoin="round">
		<path d="M 768,10 L 792,10"></path>
	</g>
	<g stroke="#304080" stroke-width="20" stroke-linecap="cap" stroke-linejoin="round">
		<path d="M 792,10 L 800,10"></path>
	</g>
	<g stroke="#C00000" stroke-width="20" stroke-linecap="cap" stroke-linejoin="round">
		<path d="M 800,10 L 812,10"></path>
	</g>
	<g stroke="#008000" stroke-width="20" stroke-linecap="cap" stroke-linejoin="round">
		<path d="M 812,10 L 908,10"></path>
	</g>
	<g stroke="#C00000" stroke-width="20" stroke-linecap="cap" stroke-linejoin="round">
		<path d="M 908,10 L 916,10"></path>
	</g>
	<g stroke="#008000" stroke-width="20" stroke-linecap="cap" stroke-linejoin="round">
		<path d="M 916,10 L 924,10"></path>
	</g>
	<g stroke="#C00000" stroke-width="20" stroke-linecap="cap" stroke-linejoin="round">
		<path d="M 924,10 L 932,10"></path>
	</g>
	<g stroke="#304080" stroke-width="20" stroke-linecap="cap" stroke-linejoin="round">
		<path d="M 932,10 L 968,10"></path>
	</g>
	<g stroke="#C00000" stroke-width="20" stroke-linecap="cap" stroke-linejoin="round">
		<path d="M 968,10 L 976,10"></path>
	</g>
	<g stroke="#5480B0" stroke-width="20" stroke-linecap="cap" stroke-linejoin="round">
		<path d="M 976,10 L 984,10"></path>
	</g>
</svg>