<?xml version="1.0" encoding="UTF-8"?>
<svg xmlns="http://www.w3.org/2000/svg" fill="none" stroke="none">
	<defs></defs>
	<g stroke="#AA0000" stroke-width="20" stroke-linecap="cap" stroke-linejoin="round">
		<path d="M 0,5 M 0,10 L 24,10"></path>
	</g>
	<g stroke="#11450D" stroke-width="20" stroke-linecap="cap" stroke-linejoin="round">
		<path d="M 24,10 L 108,10"></path>
	</g>
	<g stroke="#000000" stroke-width="20" stroke-linecap="cap" stroke-linejoin="round">
		<path d="M 108,10 L 140,10"></path>
	</g>
	<g stroke="#AA0000" stroke-width="20" stroke-linecap="cap" stroke-linejoin="round">
		<path d="M 140,10 L 252,10"></path>
	</g>
	<g stroke="#000000" stroke-width="20" stroke-linecap="cap" stroke-linejoin="round">
		<path d="M 252,10 L 256,10"></path>
	</g>
	<g stroke="#AA0000" stroke-width="20" stroke-linecap="cap" stroke-linejoin="round">
		<path d="M 256,10 L 272,10"></path>
	</g>
	<g stroke="#AA0000" stroke-width="20" stroke-linecap="cap" stroke-linejoin="round">
		<path d="M 272,10 L 296,10"></path>
	</g>
	<g stroke="#11450D" stroke-width="20" stroke-linecap="cap" stroke-linejoin="round">
		<path d="M 296,10 L 380,10"></path>
	</g>
	<g stroke="#000000" stroke-width="20" stroke-linecap="cap" stroke-linejoin="round">
		<path d="M 380,10 L 412,10"></path>
	</g>
	<g stroke="#AA0000" stroke-width="20" stroke-linecap="cap" stroke-linejoin="round">
		<path d="M 412,10 L 524,10"></path>
	</g>
	<g stroke="#000000" stroke-width="20" stroke-linecap="cap" stroke-linejoin="round">
		<path d="M 524,10 L 528,10"></path>
	</g>
	<g stroke="#AA0000" stroke-width="20" stroke-linecap="cap" stroke-linejoin="round">
		<path d="M 528,10 L 544,10"></path>
	</g>
	<g stroke="#AA0000" stroke-width="20" stroke-linecap="cap" stroke-linejoin="round">
		<path d="M 544,10 L 568,10"></path>
	</g>
	<g stroke="#11450D" stroke-width="20" stroke-linecap="cap" stroke-linejoin="round">
		<path d="M 568,10 L 652,10"></path>
	</g>
	<g stroke="#000000" stroke-width="20" stroke-linecap="cap" stroke-linejoin="round">
		<path d="M 652,10 L 684,10"></path>
	</g>
	<g stroke="#AA0000" stroke-width="20" stroke-linecap="cap" stroke-linejoin="round">
		<path d="M 684,10 L 796,10"></path>
	</g>
	<g stroke="#000000" stroke-width="20" stroke-linecap="cap" stroke-linejoin="round">
		<path d="M 796,10 L 800,10"></path>
	</g>
	<g stroke="#AA0000" stroke-width="20" stroke-linecap="cap" stroke-linejoin="round">
		<path d="M 800,10 L 816,10"></path>
	</g>
	<g stroke="#AA0000" stroke-width="20" stroke-linecap="cap" stroke-linejoin="round">
		<path d="M 816,10 L 840,10"></path>
	</g>
	<g stroke="#11450D" stroke-width="20" stroke-linecap="cap" stroke-linejoin="round">
		<path d="M 840,10 L 924,10"></path>
	</g>
	<g stroke="#000000" stroke-width="20" stroke-linecap="cap" stroke-linejoin="round">
		<path d="M 924,10 L 956,10"></path>
	</g>
</svg>