<?xml version="1.0" encoding="UTF-8"?>
<svg xmlns="http://www.w3.org/2000/svg" fill="none" stroke="none">
	<defs></defs>
	<g stroke="#000000" stroke-width="20" stroke-linecap="cap" stroke-linejoin="round">
		<path d="M 0,5 M 0,10 L 16,10"></path>
	</g>
	<g stroke="#000052" stroke-width="20" stroke-linecap="cap" stroke-linejoin="round">
		<path d="M 16,10 L 80,10"></path>
	</g>
	<g stroke="#000000" stroke-width="20" stroke-linecap="cap" stroke-linejoin="round">
		<path d="M 80,10 L 128,10"></path>
	</g>
	<g stroke="#11450D" stroke-width="20" stroke-linecap="cap" stroke-linejoin="round">
		<path d="M 128,10 L 224,10"></path>
	</g>
	<g stroke="#AA0000" stroke-width="20" stroke-linecap="cap" stroke-linejoin="round">
		<path d="M 224,10 L 228,10"></path>
	</g>
	<g stroke="#11450D" stroke-width="20" stroke-linecap="cap" stroke-linejoin="round">
		<path d="M 228,10 L 236,10"></path>
	</g>
	<g stroke="#000000" stroke-width="20" stroke-linecap="cap" stroke-linejoin="round">
		<path d="M 236,10 L 244,10"></path>
	</g>
	<g stroke="#000000" stroke-width="20" stroke-linecap="cap" stroke-linejoin="round">
		<path d="M 244,10 L 260,10"></path>
	</g>
	<g stroke="#000052" stroke-width="20" stroke-linecap="cap" stroke-linejoin="round">
		<path d="M 260,10 L 324,10"></path>
	</g>
	<g stroke="#000000" stroke-width="20" stroke-linecap="cap" stroke-linejoin="round">
		<path d="M 324,10 L 372,10"></path>
	</g>
	<g stroke="#11450D" stroke-width="20" stroke-linecap="cap" stroke-linejoin="round">
		<path d="M 372,10 L 468,10"></path>
	</g>
	<g stroke="#AA0000" stroke-width="20" stroke-linecap="cap" stroke-linejoin="round">
		<path d="M 468,10 L 472,10"></path>
	</g>
	<g stroke="#11450D" stroke-width="20" stroke-linecap="cap" stroke-linejoin="round">
		<path d="M 472,10 L 480,10"></path>
	</g>
	<g stroke="#000000" stroke-width="20" stroke-linecap="cap" stroke-linejoin="round">
		<path d="M 480,10 L 488,10"></path>
	</g>
	<g stroke="#000000" stroke-width="20" stroke-linecap="cap" stroke-linejoin="round">
		<path d="M 488,10 L 504,10"></path>
	</g>
	<g stroke="#000052" stroke-width="20" stroke-linecap="cap" stroke-linejoin="round">
		<path d="M 504,10 L 568,10"></path>
	</g>
	<g stroke="#000000" stroke-width="20" stroke-linecap="cap" stroke-linejoin="round">
		<path d="M 568,10 L 616,10"></path>
	</g>
	<g stroke="#11450D" stroke-width="20" stroke-linecap="cap" stroke-linejoin="round">
		<path d="M 616,10 L 712,10"></path>
	</g>
	<g stroke="#AA0000" stroke-width="20" stroke-linecap="cap" stroke-linejoin="round">
		<path d="M 712,10 L 716,10"></path>
	</g>
	<g stroke="#11450D" stroke-width="20" stroke-linecap="cap" stroke-linejoin="round">
		<path d="M 716,10 L 724,10"></path>
	</g>
	<g stroke="#000000" stroke-width="20" stroke-linecap="cap" stroke-linejoin="round">
		<path d="M 724,10 L 732,10"></path>
	</g>
	<g stroke="#000000" stroke-width="20" stroke-linecap="cap" stroke-linejoin="round">
		<path d="M 732,10 L 748,10"></path>
	</g>
	<g stroke="#000052" stroke-width="20" stroke-linecap="cap" stroke-linejoin="round">
		<path d="M 748,10 L 812,10"></path>
	</g>
	<g stroke="#000000" stroke-width="20" stroke-linecap="cap" stroke-linejoin="round">
		<path d="M 812,10 L 860,10"></path>
	</g>
	<g stroke="#11450D" stroke-width="20" stroke-linecap="cap" stroke-linejoin="round">
		<path d="M 860,10 L 956,10"></path>
	</g>
	<g stroke="#AA0000" stroke-width="20" stroke-linecap="cap" stroke-linejoin="round">
		<path d="M 956,10 L 960,10"></path>
	</g>
	<g stroke="#11450D" stroke-width="20" stroke-linecap="cap" stroke-linejoin="round">
		<path d="M 960,10 L 968,10"></path>
	</g>
	<g stroke="#000000" stroke-width="20" stroke-linecap="cap" stroke-linejoin="round">
		<path d="M 968,10 L 976,10"></path>
	</g>
	<g stroke="#000000" stroke-width="20" stroke-linecap="cap" stroke-linejoin="round">
		<path d="M 976,10 L 992,10"></path>
	</g>
</svg>