<?xml version="1.0" encoding="UTF-8"?>
<svg xmlns="http://www.w3.org/2000/svg" fill="none" stroke="none">
	<defs></defs>
	<g stroke="#E0E0E0" stroke-width="20" stroke-linecap="cap" stroke-linejoin="round">
		<path d="M 0,5 M 0,10 L 8,10"></path>
	</g>
	<g stroke="#5480B0" stroke-width="20" stroke-linecap="cap" stroke-linejoin="round">
		<path d="M 8,10 L 24,10"></path>
	</g>
	<g stroke="#000000" stroke-width="20" stroke-linecap="cap" stroke-linejoin="round">
		<path d="M 24,10 L 40,10"></path>
	</g>
	<g stroke="#C00000" stroke-width="20" stroke-linecap="cap" stroke-linejoin="round">
		<path d="M 40,10 L 80,10"></path>
	</g>
	<g stroke="#008000" stroke-width="20" stroke-linecap="cap" stroke-linejoin="round">
		<path d="M 80,10 L 164,10"></path>
	</g>
	<g stroke="#E0E0E0" stroke-width="20" stroke-linecap="cap" stroke-linejoin="round">
		<path d="M 164,10 L 172,10"></path>
	</g>
	<g stroke="#000000" stroke-width="20" stroke-linecap="cap" stroke-linejoin="round">
		<path d="M 172,10 L 188,10"></path>
	</g>
	<g stroke="#F0C000" stroke-width="20" stroke-linecap="cap" stroke-linejoin="round">
		<path d="M 188,10 L 196,10"></path>
	</g>
	<g stroke="#C00000" stroke-width="20" stroke-linecap="cap" stroke-linejoin="round">
		<path d="M 196,10 L 400,10"></path>
	</g>
	<g stroke="#E0E0E0" stroke-width="20" stroke-linecap="cap" stroke-linejoin="round">
		<path d="M 400,10 L 408,10"></path>
	</g>
	<g stroke="#5480B0" stroke-width="20" stroke-linecap="cap" stroke-linejoin="round">
		<path d="M 408,10 L 424,10"></path>
	</g>
	<g stroke="#000000" stroke-width="20" stroke-linecap="cap" stroke-linejoin="round">
		<path d="M 424,10 L 440,10"></path>
	</g>
	<g stroke="#C00000" stroke-width="20" stroke-linecap="cap" stroke-linejoin="round">
		<path d="M 440,10 L 480,10"></path>
	</g>
	<g stroke="#008000" stroke-width="20" stroke-linecap="cap" stroke-linejoin="round">
		<path d="M 480,10 L 564,10"></path>
	</g>
	<g stroke="#E0E0E0" stroke-width="20" stroke-linecap="cap" stroke-linejoin="round">
		<path d="M 564,10 L 572,10"></path>
	</g>
	<g stroke="#000000" stroke-width="20" stroke-linecap="cap" stroke-linejoin="round">
		<path d="M 572,10 L 588,10"></path>
	</g>
	<g stroke="#F0C000" stroke-width="20" stroke-linecap="cap" stroke-linejoin="round">
		<path d="M 588,10 L 596,10"></path>
	</g>
	<g stroke="#C00000" stroke-width="20" stroke-linecap="cap" stroke-linejoin="round">
		<path d="M 596,10 L 800,10"></path>
	</g>
	<g stroke="#E0E0E0" stroke-width="20" stroke-linecap="cap" stroke-linejoin="round">
		<path d="M 800,10 L 808,10"></path>
	</g>
	<g stroke="#5480B0" stroke-width="20" stroke-linecap="cap" stroke-linejoin="round">
		<path d="M 808,10 L 824,10"></path>
	</g>
	<g stroke="#000000" stroke-width="20" stroke-linecap="cap" stroke-linejoin="round">
		<path d="M 824,10 L 840,10"></path>
	</g>
	<g stroke="#C00000" stroke-width="20" stroke-linecap="cap" stroke-linejoin="round">
		<path d="M 840,10 L 880,10"></path>
	</g>
	<g stroke="#008000" stroke-width="20" stroke-linecap="cap" stroke-linejoin="round">
		<path d="M 880,10 L 964,10"></path>
	</g>
	<g stroke="#E0E0E0" stroke-width="20" stroke-linecap="cap" stroke-linejoin="round">
		<path d="M 964,10 L 972,10"></path>
	</g>
	<g stroke="#000000" stroke-width="20" stroke-linecap="cap" stroke-linejoin="round">
		<path d="M 972,10 L 988,10"></path>
	</g>
	<g stroke="#F0C000" stroke-width="20" stroke-linecap="cap" stroke-linejoin="round">
		<path d="M 988,10 L 996,10"></path>
	</g>
</svg>