<?xml version="1.0" encoding="UTF-8"?>
<svg xmlns="http://www.w3.org/2000/svg" fill="none" stroke="none">
	<defs></defs>
	<g stroke="#D0D0D0" stroke-width="20" stroke-linecap="cap" stroke-linejoin="round">
		<path d="M 0,5 M 0,10 L 16,10"></path>
	</g>
	<g stroke="#C80000" stroke-width="20" stroke-linecap="cap" stroke-linejoin="round">
		<path d="M 16,10 L 24,10"></path>
	</g>
	<g stroke="#D0D0D0" stroke-width="20" stroke-linecap="cap" stroke-linejoin="round">
		<path d="M 24,10 L 68,10"></path>
	</g>
	<g stroke="#707070" stroke-width="20" stroke-linecap="cap" stroke-linejoin="round">
		<path d="M 68,10 L 76,10"></path>
	</g>
	<g stroke="#000000" stroke-width="20" stroke-linecap="cap" stroke-linejoin="round">
		<path d="M 76,10 L 84,10"></path>
	</g>
	<g stroke="#D0D0D0" stroke-width="20" stroke-linecap="cap" stroke-linejoin="round">
		<path d="M 84,10 L 88,10"></path>
	</g>
	<g stroke="#707070" stroke-width="20" stroke-linecap="cap" stroke-linejoin="round">
		<path d="M 88,10 L 92,10"></path>
	</g>
	<g stroke="#D0D0D0" stroke-width="20" stroke-linecap="cap" stroke-linejoin="round">
		<path d="M 92,10 L 96,10"></path>
	</g>
	<g stroke="#707070" stroke-width="20" stroke-linecap="cap" stroke-linejoin="round">
		<path d="M 96,10 L 112,10"></path>
	</g>
	<g stroke="#D0D0D0" stroke-width="20" stroke-linecap="cap" stroke-linejoin="round">
		<path d="M 112,10 L 120,10"></path>
	</g>
	<g stroke="#000000" stroke-width="20" stroke-linecap="cap" stroke-linejoin="round">
		<path d="M 120,10 L 124,10"></path>
	</g>
	<g stroke="#D0D0D0" stroke-width="20" stroke-linecap="cap" stroke-linejoin="round">
		<path d="M 124,10 L 128,10"></path>
	</g>
	<g stroke="#C80000" stroke-width="20" stroke-linecap="cap" stroke-linejoin="round">
		<path d="M 128,10 L 132,10"></path>
	</g>
	<g stroke="#D0D0D0" stroke-width="20" stroke-linecap="cap" stroke-linejoin="round">
		<path d="M 132,10 L 148,10"></path>
	</g>
	<g stroke="#C80000" stroke-width="20" stroke-linecap="cap" stroke-linejoin="round">
		<path d="M 148,10 L 156,10"></path>
	</g>
	<g stroke="#D0D0D0" stroke-width="20" stroke-linecap="cap" stroke-linejoin="round">
		<path d="M 156,10 L 200,10"></path>
	</g>
	<g stroke="#707070" stroke-width="20" stroke-linecap="cap" stroke-linejoin="round">
		<path d="M 200,10 L 208,10"></path>
	</g>
	<g stroke="#000000" stroke-width="20" stroke-linecap="cap" stroke-linejoin="round">
		<path d="M 208,10 L 216,10"></path>
	</g>
	<g stroke="#D0D0D0" stroke-width="20" stroke-linecap="cap" stroke-linejoin="round">
		<path d="M 216,10 L 220,10"></path>
	</g>
	<g stroke="#707070" stroke-width="20" stroke-linecap="cap" stroke-linejoin="round">
		<path d="M 220,10 L 224,10"></path>
	</g>
	<g stroke="#D0D0D0" stroke-width="20" stroke-linecap="cap" stroke-linejoin="round">
		<path d="M 224,10 L 228,10"></path>
	</g>
	<g stroke="#707070" stroke-width="20" stroke-linecap="cap" stroke-linejoin="round">
		<path d="M 228,10 L 244,10"></path>
	</g>
	<g stroke="#D0D0D0" stroke-width="20" stroke-linecap="cap" stroke-linejoin="round">
		<path d="M 244,10 L 252,10"></path>
	</g>
	<g stroke="#000000" stroke-width="20" stroke-linecap="cap" stroke-linejoin="round">
		<path d="M 252,10 L 256,10"></path>
	</g>
	<g stroke="#D0D0D0" stroke-width="20" stroke-linecap="cap" stroke-linejoin="round">
		<path d="M 256,10 L 260,10"></path>
	</g>
	<g stroke="#C80000" stroke-width="20" stroke-linecap="cap" stroke-linejoin="round">
		<path d="M 260,10 L 264,10"></path>
	</g>
	<g stroke="#D0D0D0" stroke-width="20" stroke-linecap="cap" stroke-linejoin="round">
		<path d="M 264,10 L 280,10"></path>
	</g>
	<g stroke="#C80000" stroke-width="20" stroke-linecap="cap" stroke-linejoin="round">
		<path d="M 280,10 L 288,10"></path>
	</g>
	<g stroke="#D0D0D0" stroke-width="20" stroke-linecap="cap" stroke-linejoin="round">
		<path d="M 288,10 L 332,10"></path>
	</g>
	<g stroke="#707070" stroke-width="20" stroke-linecap="cap" stroke-linejoin="round">
		<path d="M 332,10 L 340,10"></path>
	</g>
	<g stroke="#000000" stroke-width="20" stroke-linecap="cap" stroke-linejoin="round">
		<path d="M 340,10 L 348,10"></path>
	</g>
	<g stroke="#D0D0D0" stroke-width="20" stroke-linecap="cap" stroke-linejoin="round">
		<path d="M 348,10 L 352,10"></path>
	</g>
	<g stroke="#707070" stroke-width="20" stroke-linecap="cap" stroke-linejoin="round">
		<path d="M 352,10 L 356,10"></path>
	</g>
	<g stroke="#D0D0D0" stroke-width="20" stroke-linecap="cap" stroke-linejoin="round">
		<path d="M 356,10 L 360,10"></path>
	</g>
	<g stroke="#707070" stroke-width="20" stroke-linecap="cap" stroke-linejoin="round">
		<path d="M 360,10 L 376,10"></path>
	</g>
	<g stroke="#D0D0D0" stroke-width="20" stroke-linecap="cap" stroke-linejoin="round">
		<path d="M 376,10 L 384,10"></path>
	</g>
	<g stroke="#000000" stroke-width="20" stroke-linecap="cap" stroke-linejoin="round">
		<path d="M 384,10 L 388,10"></path>
	</g>
	<g stroke="#D0D0D0" stroke-width="20" stroke-linecap="cap" stroke-linejoin="round">
		<path d="M 388,10 L 392,10"></path>
	</g>
	<g stroke="#C80000" stroke-width="20" stroke-linecap="cap" stroke-linejoin="round">
		<path d="M 392,10 L 396,10"></path>
	</g>
	<g stroke="#D0D0D0" stroke-width="20" stroke-linecap="cap" stroke-linejoin="round">
		<path d="M 396,10 L 412,10"></path>
	</g>
	<g stroke="#C80000" stroke-width="20" stroke-linecap="cap" stroke-linejoin="round">
		<path d="M 412,10 L 420,10"></path>
	</g>
	<g stroke="#D0D0D0" stroke-width="20" stroke-linecap="cap" stroke-linejoin="round">
		<path d="M 420,10 L 464,10"></path>
	</g>
	<g stroke="#707070" stroke-width="20" stroke-linecap="cap" stroke-linejoin="round">
		<path d="M 464,10 L 472,10"></path>
	</g>
	<g stroke="#000000" stroke-width="20" stroke-linecap="cap" stroke-linejoin="round">
		<path d="M 472,10 L 480,10"></path>
	</g>
	<g stroke="#D0D0D0" stroke-width="20" stroke-linecap="cap" stroke-linejoin="round">
		<path d="M 480,10 L 484,10"></path>
	</g>
	<g stroke="#707070" stroke-width="20" stroke-linecap="cap" stroke-linejoin="round">
		<path d="M 484,10 L 488,10"></path>
	</g>
	<g stroke="#D0D0D0" stroke-width="20" stroke-linecap="cap" stroke-linejoin="round">
		<path d="M 488,10 L 492,10"></path>
	</g>
	<g stroke="#707070" stroke-width="20" stroke-linecap="cap" stroke-linejoin="round">
		<path d="M 492,10 L 508,10"></path>
	</g>
	<g stroke="#D0D0D0" stroke-width="20" stroke-linecap="cap" stroke-linejoin="round">
		<path d="M 508,10 L 516,10"></path>
	</g>
	<g stroke="#000000" stroke-width="20" stroke-linecap="cap" stroke-linejoin="round">
		<path d="M 516,10 L 520,10"></path>
	</g>
	<g stroke="#D0D0D0" stroke-width="20" stroke-linecap="cap" stroke-linejoin="round">
		<path d="M 520,10 L 524,10"></path>
	</g>
	<g stroke="#C80000" stroke-width="20" stroke-linecap="cap" stroke-linejoin="round">
		<path d="M 524,10 L 528,10"></path>
	</g>
	<g stroke="#D0D0D0" stroke-width="20" stroke-linecap="cap" stroke-linejoin="round">
		<path d="M 528,10 L 544,10"></path>
	</g>
	<g stroke="#C80000" stroke-width="20" stroke-linecap="cap" stroke-linejoin="round">
		<path d="M 544,10 L 552,10"></path>
	</g>
	<g stroke="#D0D0D0" stroke-width="20" stroke-linecap="cap" stroke-linejoin="round">
		<path d="M 552,10 L 596,10"></path>
	</g>
	<g stroke="#707070" stroke-width="20" stroke-linecap="cap" stroke-linejoin="round">
		<path d="M 596,10 L 604,10"></path>
	</g>
	<g stroke="#000000" stroke-width="20" stroke-linecap="cap" stroke-linejoin="round">
		<path d="M 604,10 L 612,10"></path>
	</g>
	<g stroke="#D0D0D0" stroke-width="20" stroke-linecap="cap" stroke-linejoin="round">
		<path d="M 612,10 L 616,10"></path>
	</g>
	<g stroke="#707070" stroke-width="20" stroke-linecap="cap" stroke-linejoin="round">
		<path d="M 616,10 L 620,10"></path>
	</g>
	<g stroke="#D0D0D0" stroke-width="20" stroke-linecap="cap" stroke-linejoin="round">
		<path d="M 620,10 L 624,10"></path>
	</g>
	<g stroke="#707070" stroke-width="20" stroke-linecap="cap" stroke-linejoin="round">
		<path d="M 624,10 L 640,10"></path>
	</g>
	<g stroke="#D0D0D0" stroke-width="20" stroke-linecap="cap" stroke-linejoin="round">
		<path d="M 640,10 L 648,10"></path>
	</g>
	<g stroke="#000000" stroke-width="20" stroke-linecap="cap" stroke-linejoin="round">
		<path d="M 648,10 L 652,10"></path>
	</g>
	<g stroke="#D0D0D0" stroke-width="20" stroke-linecap="cap" stroke-linejoin="round">
		<path d="M 652,10 L 656,10"></path>
	</g>
	<g stroke="#C80000" stroke-width="20" stroke-linecap="cap" stroke-linejoin="round">
		<path d="M 656,10 L 660,10"></path>
	</g>
	<g stroke="#D0D0D0" stroke-width="20" stroke-linecap="cap" stroke-linejoin="round">
		<path d="M 660,10 L 676,10"></path>
	</g>
	<g stroke="#C80000" stroke-width="20" stroke-linecap="cap" stroke-linejoin="round">
		<path d="M 676,10 L 684,10"></path>
	</g>
	<g stroke="#D0D0D0" stroke-width="20" stroke-linecap="cap" stroke-linejoin="round">
		<path d="M 684,10 L 728,10"></path>
	</g>
	<g stroke="#707070" stroke-width="20" stroke-linecap="cap" stroke-linejoin="round">
		<path d="M 728,10 L 736,10"></path>
	</g>
	<g stroke="#000000" stroke-width="20" stroke-linecap="cap" stroke-linejoin="round">
		<path d="M 736,10 L 744,10"></path>
	</g>
	<g stroke="#D0D0D0" stroke-width="20" stroke-linecap="cap" stroke-linejoin="round">
		<path d="M 744,10 L 748,10"></path>
	</g>
	<g stroke="#707070" stroke-width="20" stroke-linecap="cap" stroke-linejoin="round">
		<path d="M 748,10 L 752,10"></path>
	</g>
	<g stroke="#D0D0D0" stroke-width="20" stroke-linecap="cap" stroke-linejoin="round">
		<path d="M 752,10 L 756,10"></path>
	</g>
	<g stroke="#707070" stroke-width="20" stroke-linecap="cap" stroke-linejoin="round">
		<path d="M 756,10 L 772,10"></path>
	</g>
	<g stroke="#D0D0D0" stroke-width="20" stroke-linecap="cap" stroke-linejoin="round">
		<path d="M 772,10 L 780,10"></path>
	</g>
	<g stroke="#000000" stroke-width="20" stroke-linecap="cap" stroke-linejoin="round">
		<path d="M 780,10 L 784,10"></path>
	</g>
	<g stroke="#D0D0D0" stroke-width="20" stroke-linecap="cap" stroke-linejoin="round">
		<path d="M 784,10 L 788,10"></path>
	</g>
	<g stroke="#C80000" stroke-width="20" stroke-linecap="cap" stroke-linejoin="round">
		<path d="M 788,10 L 792,10"></path>
	</g>
	<g stroke="#D0D0D0" stroke-width="20" stroke-linecap="cap" stroke-linejoin="round">
		<path d="M 792,10 L 808,10"></path>
	</g>
	<g stroke="#C80000" stroke-width="20" stroke-linecap="cap" stroke-linejoin="round">
		<path d="M 808,10 L 816,10"></path>
	</g>
	<g stroke="#D0D0D0" stroke-width="20" stroke-linecap="cap" stroke-linejoin="round">
		<path d="M 816,10 L 860,10"></path>
	</g>
	<g stroke="#707070" stroke-width="20" stroke-linecap="cap" stroke-linejoin="round">
		<path d="M 860,10 L 868,10"></path>
	</g>
	<g stroke="#000000" stroke-width="20" stroke-linecap="cap" stroke-linejoin="round">
		<path d="M 868,10 L 876,10"></path>
	</g>
	<g stroke="#D0D0D0" stroke-width="20" stroke-linecap="cap" stroke-linejoin="round">
		<path d="M 876,10 L 880,10"></path>
	</g>
	<g stroke="#707070" stroke-width="20" stroke-linecap="cap" stroke-linejoin="round">
		<path d="M 880,10 L 884,10"></path>
	</g>
	<g stroke="#D0D0D0" stroke-width="20" stroke-linecap="cap" stroke-linejoin="round">
		<path d="M 884,10 L 888,10"></path>
	</g>
	<g stroke="#707070" stroke-width="20" stroke-linecap="cap" stroke-linejoin="round">
		<path d="M 888,10 L 904,10"></path>
	</g>
	<g stroke="#D0D0D0" stroke-width="20" stroke-linecap="cap" stroke-linejoin="round">
		<path d="M 904,10 L 912,10"></path>
	</g>
	<g stroke="#000000" stroke-width="20" stroke-linecap="cap" stroke-linejoin="round">
		<path d="M 912,10 L 916,10"></path>
	</g>
	<g stroke="#D0D0D0" stroke-width="20" stroke-linecap="cap" stroke-linejoin="round">
		<path d="M 916,10 L 920,10"></path>
	</g>
	<g stroke="#C80000" stroke-width="20" stroke-linecap="cap" stroke-linejoin="round">
		<path d="M 920,10 L 924,10"></path>
	</g>
	<g stroke="#D0D0D0" stroke-width="20" stroke-linecap="cap" stroke-linejoin="round">
		<path d="M 924,10 L 940,10"></path>
	</g>
	<g stroke="#C80000" stroke-width="20" stroke-linecap="cap" stroke-linejoin="round">
		<path d="M 940,10 L 948,10"></path>
	</g>
	<g stroke="#D0D0D0" stroke-width="20" stroke-linecap="cap" stroke-linejoin="round">
		<path d="M 948,10 L 992,10"></path>
	</g>
	<g stroke="#707070" stroke-width="20" stroke-linecap="cap" stroke-linejoin="round">
		<path d="M 992,10 L 1000,10"></path>
	</g>
</svg>